<?xml version="1.0" encoding="UTF-8"?>
<svg width="24px" height="24px" viewBox="0 0 24 24" version="1.1" xmlns="http://www.w3.org/2000/svg" xmlns:xlink="http://www.w3.org/1999/xlink">
    <!-- Generator: Sketch 55.1 (78136) - https://sketchapp.com -->
    <title>ic/action/close_small</title>
    <desc>Created with Sketch.</desc>
    <g id="ic/action/close_small" stroke="none" stroke-width="1" fill="none" fill-rule="evenodd">
        <path d="M13.4142136,12 L15.9497475,9.46446609 C16.3402718,9.0739418 16.3402718,8.44077682 15.9497475,8.05025253 C15.5592232,7.65972824 14.9260582,7.65972824 14.5355339,8.05025253 L12,10.5857864 L9.46446609,8.05025253 C9.0739418,7.65972824 8.44077682,7.65972824 8.05025253,8.05025253 C7.65972824,8.44077682 7.65972824,9.0739418 8.05025253,9.46446609 L10.5857864,12 L8.05025253,14.5355339 C7.65972824,14.9260582 7.65972824,15.5592232 8.05025253,15.9497475 C8.44077682,16.3402718 9.0739418,16.3402718 9.46446609,15.9497475 L12,13.4142136 L14.5355339,15.9497475 C14.9260582,16.3402718 15.5592232,16.3402718 15.9497475,15.9497475 C16.3402718,15.5592232 16.3402718,14.9260582 15.9497475,14.5355339 L13.4142136,12 Z" id="Path" fill="#4C4B5D"></path>
    </g>
</svg>