<?xml version="1.0" encoding="UTF-8"?>
<svg width="854px" height="162px" viewBox="0 0 854 162" version="1.1" xmlns="http://www.w3.org/2000/svg" xmlns:xlink="http://www.w3.org/1999/xlink">
    <!-- Generator: Sketch 55.1 (78136) - https://sketchapp.com -->
    <title>Green@eps</title>
    <desc>Created with Sketch.</desc>
    <defs>
        <path d="M0.12,0.846 L20.791,0.846 L20.791,29.188 C25.861,22.947 33.921,21.127 41.462,21.127 C61.482,21.387 67.073,36.208 66.813,53.759 L66.813,92.5 L46.142,92.5 L46.142,53.889 C46.142,44.658 41.072,40.628 35.611,40.498 C29.371,40.368 21.831,45.698 21.831,54.279 L21.831,92.5 L0.12,92.5 L0.12,0.846 Z M108.154,62.469 L113.354,44.658 L122.065,22.167 L143.256,22.167 L143.256,25.417 C131.685,54.669 120.115,83.79 108.674,113.041 L87.483,113.041 L87.483,109.921 L96.584,86.78 L73.183,25.417 L73.183,22.167 L94.504,22.167 L103.214,44.658 L108.154,62.469 Z M189.147,93.67 C182.257,93.67 175.627,91.33 170.947,86 L170.947,113.041 L150.666,113.041 L150.666,22.167 L170.947,22.167 L170.947,29.188 C175.757,23.207 182.647,21.257 189.407,21.257 C211.768,21.257 223.339,39.198 223.209,58.569 C222.949,77.809 211.898,93.67 189.147,93.67 Z M186.937,40.888 C178.097,40.888 170.947,48.428 170.947,57.789 C170.947,67.149 178.097,74.819 186.937,74.819 C197.338,74.819 202.538,66.499 202.668,58.049 C202.798,49.598 197.468,40.888 186.937,40.888 Z M303.682,57.139 C303.682,59.999 303.422,62.599 302.902,65.199 L252.46,65.199 C254.93,71.699 261.3,74.949 267.54,75.079 C272.091,75.079 276.381,73.519 279.371,70.269 L301.602,70.269 C296.142,85.87 281.321,93.54 266.5,93.28 C248.69,92.89 231.009,80.93 231.009,57.139 C231.009,32.958 249.34,20.997 267.67,21.127 C285.741,21.257 303.682,33.218 303.682,57.139 Z M253.24,49.208 L281.321,49.208 C279.371,42.188 273.651,38.938 267.02,38.938 C260.91,38.938 255.32,42.318 253.24,49.208 Z M333.843,53.498 L333.843,92.5 L313.432,92.5 L313.432,22.167 L331.893,22.167 L332.673,26.847 C337.223,22.557 342.293,20.737 348.013,20.737 C350.484,20.737 353.214,21.127 355.944,21.777 L355.684,41.018 C353.604,40.368 351.134,39.978 348.794,39.978 C341.383,40.108 333.843,44.008 333.843,53.498 Z M407.686,92.63 C403.656,93.28 399.885,93.67 396.505,93.67 C380.775,93.8 371.284,86.52 371.284,68.189 L371.284,40.498 L362.054,40.498 L362.054,22.947 L371.284,22.947 L371.284,9.557 L391.695,7.737 L391.695,22.947 L406.386,22.947 L406.386,40.498 L391.695,40.498 L391.695,68.189 C391.695,74.429 396.245,76.379 401.186,76.379 C403.136,76.379 405.216,76.119 407.036,75.729 L407.686,92.63 Z M437.197,53.498 L437.197,92.5 L416.786,92.5 L416.786,22.167 L435.247,22.167 L436.027,26.847 C440.577,22.557 445.647,20.737 451.367,20.737 C453.838,20.737 456.568,21.127 459.298,21.777 L459.038,41.018 C456.958,40.368 454.488,39.978 452.148,39.978 C444.737,40.108 437.197,44.008 437.197,53.498 Z M500.119,20.997 C507.01,20.997 513.77,23.597 518.32,29.448 L518.32,22.167 L538.731,22.167 L538.731,92.5 L518.32,92.5 L518.32,85.48 C513.51,91.46 506.62,93.41 499.859,93.41 C477.498,93.41 465.928,75.469 466.058,56.099 C466.318,36.858 477.368,20.997 500.119,20.997 Z M502.329,73.779 C511.17,73.779 518.32,66.239 518.32,56.879 C518.32,47.518 511.17,39.848 502.329,39.848 C491.929,39.848 486.729,48.038 486.599,56.619 C486.469,65.069 491.799,73.779 502.329,73.779 Z M598.143,62.599 L618.424,62.599 C612.574,105.761 547.571,102.77 547.571,57.269 C547.571,11.767 612.704,8.777 618.424,52.068 L598.143,52.068 C592.943,34.648 567.592,37.378 567.592,57.269 C567.592,77.159 592.813,80.02 598.143,62.599 Z M649.495,49.858 L668.866,22.167 L691.227,22.167 L691.227,23.207 L667.436,57.139 L693.567,91.59 L693.567,92.5 L669.646,92.5 L649.495,65.069 L649.495,92.5 L629.084,92.5 L629.084,1.497 L649.495,1.497 L649.495,49.858 Z" id="path-1"></path>
        <path d="M16.419,19.342 C7.738,19.342 0.405,15.086 0.405,10.046 C0.405,5.005 7.738,0.747 16.419,0.747 C25.098,0.747 32.432,5.005 32.432,10.046 C32.432,15.086 25.098,19.342 16.419,19.342 Z" id="path-3"></path>
        <path d="M137.393,43.203 C137.859,44.102 138.14,45.09 138.14,46.095 L138.14,115.543 C138.14,117.723 137.038,119.721 135.195,120.886 L72.818,160.56 C71.799,161.206 70.625,161.549 69.417,161.549 C68.21,161.549 67.035,161.208 66.02,160.56 L3.643,120.889 C1.797,119.72 0.698,117.723 0.698,115.543 L0.698,46.095 C0.698,45.025 0.987,44.003 1.488,43.085 C1.509,43.046 1.527,43.007 1.548,42.969 C1.794,42.54 2.073,42.129 2.42,41.761 C2.425,41.755 2.43,41.748 2.436,41.742 C2.438,41.74 2.438,41.739 2.439,41.739 C2.762,41.4 3.126,41.106 3.512,40.846 C3.565,40.811 3.603,40.759 3.659,40.725 L66.025,1.074 C67.041,0.432 68.214,0.09 69.417,0.09 C70.62,0.09 71.792,0.432 72.807,1.077 L135.183,40.725 C135.195,40.732 135.203,40.744 135.214,40.752 C135.581,40.99 135.924,41.262 136.239,41.577 C136.269,41.605 136.29,41.64 136.317,41.672 C136.422,41.779 136.506,41.904 136.603,42.02 C136.826,42.286 137.031,42.563 137.208,42.861 C137.274,42.972 137.334,43.086 137.393,43.203 Z M71.502,119.532 L71.502,83.851 L71.502,119.532 C70.201,120.016 68.726,119.879 67.521,119.114 L0.919,76.287 L0.919,84.662 L64.306,124.18 C66.487,125.564 69.047,126.067 71.502,125.696 L71.502,151.479 L71.502,125.696 C73.004,125.47 74.467,124.915 75.779,124.036 L98.157,109.362 C99.026,110.835 100.235,111.932 101.745,112.481 C106.591,114.245 112.695,109.699 115.378,102.327 C118.061,94.955 116.308,87.549 111.462,85.785 C106.615,84.021 100.512,88.568 97.829,95.94 C96.966,98.31 96.562,100.683 96.572,102.872 L72.438,119.052 C72.142,119.251 71.827,119.411 71.502,119.532 Z M69.417,13.89 L18.825,46.046 L69.417,78.246 L120.008,46.044 L69.417,13.89 Z" id="path-5"></path>
    </defs>
    <g id="Green@eps" stroke="none" stroke-width="1" fill="none" fill-rule="evenodd">
        <g id="Group-3" transform="translate(159.000000, 23.000000)">
            <mask id="mask-2" fill="white">
                <use xlink:href="#path-1"></use>
            </mask>
            <g id="Clip-2"></g>
            <polygon id="Fill-1" fill="#2ACD59" mask="url(#mask-2)" points="0.06 113.14 693.66 113.14 693.66 0.82 0.06 0.82"></polygon>
        </g>
        <g id="Group-6" transform="translate(53.000000, 36.000000)">
            <mask id="mask-4" fill="white">
                <use xlink:href="#path-3"></use>
            </mask>
            <g id="Clip-5"></g>
            <polygon id="Fill-4" fill="#2ACD59" mask="url(#mask-4)" points="0.34 19.38 32.5 19.38 32.5 0.66 0.34 0.66"></polygon>
        </g>
        <g id="Group-9">
            <mask id="mask-6" fill="white">
                <use xlink:href="#path-5"></use>
            </mask>
            <g id="Clip-8"></g>
            <polygon id="Fill-7" fill="#2ACD59" mask="url(#mask-6)" points="0.66 161.58 138.18 161.58 138.18 0.06 0.66 0.06"></polygon>
        </g>
    </g>
</svg>